<svg width="24" height="24" xmlns="http://www.w3.org/2000/svg" version="1.1">

 <g>
  <g id="surface1">
   <path id="svg_1" fill="rgb(0%,0%,0%)" fill-rule="nonzero" d="m19.5,4.5l-15,0c-1.37891,0 -2.5,1.12109 -2.5,2.5l0,10c0,1.37891 1.12109,2.5 2.5,2.5l15,0c1.37891,0 2.5,-1.12109 2.5,-2.5l0,-10c0,-1.37891 -1.12109,-2.5 -2.5,-2.5zm-11.25,11.875l-3.125,0c-0.34375,0 -0.625,-0.28125 -0.625,-0.625l0,-0.625c0,-0.34375 0.28125,-0.625 0.625,-0.625l3.125,0l0,1.875zm5,-0.625c0,0.34375 -0.28125,0.625 -0.625,0.625l-3.125,0l0,-1.875l3.125,0c0.34375,0 0.625,0.28125 0.625,0.625l0,0.625zm6.25,-5c0,0.69141 -0.55859,1.25 -1.25,1.25l-12.5,0c-0.69141,0 -1.25,-0.55859 -1.25,-1.25l0,-2.5c0,-0.69141 0.55859,-1.25 1.25,-1.25l12.5,0c0.69141,0 1.25,0.55859 1.25,1.25l0,2.5zm0,0"/>
  </g>
 </g>
</svg>